<svg width="40" height="40" viewBox="0 0 40 40" fill="none" xmlns="http://www.w3.org/2000/svg">
<path d="M19.9209 40C30.9881 40 39.8419 31.04 39.8419 20C39.8419 8.96 30.9881 0 19.9209 0C8.85376 0 0 8.96 0 20C0 31.04 9.01186 40 19.9209 40ZM19.9209 4C28.7747 4 35.8893 11.2 35.8893 20C35.8893 28.8 28.6166 36 19.9209 36C11.2253 36 3.95257 28.8 3.95257 20C3.95257 11.2 11.2253 4 19.9209 4Z" fill="#B2B2B2"/>
<path d="M20 33C27.1573 33 33 27.2386 33 20C33 12.7614 27.3034 7 20 7C12.6966 7 7 12.7614 7 20C7 27.2386 12.8427 33 20 33ZM11.236 16.3068H17.0787L18.8315 10.6932C18.9775 10.25 19.2697 10.1023 19.7079 10.1023C20.1461 10.1023 20.4382 10.3977 20.5843 10.6932L22.3371 16.3068H28.1798C28.618 16.3068 28.9101 16.6023 29.0562 16.8977C29.2022 17.1932 29.0562 17.6364 28.764 17.9318L23.9438 21.4773L25.6966 27.0909C25.8427 27.5341 25.6966 27.8295 25.4045 28.125C25.2584 28.2727 25.1124 28.2727 24.8202 28.2727C24.5281 28.2727 24.382 28.2727 24.236 28.125L19.4157 24.5795L15.0337 28.125C14.7416 28.4205 14.3034 28.4205 14.0112 28.125C13.7191 27.8295 13.573 27.5341 13.7191 27.0909L15.4719 21.4773L10.6517 17.9318C10.3596 17.6364 10.2135 17.3409 10.3596 16.8977C10.5056 16.4545 10.9438 16.3068 11.236 16.3068Z" fill="#B2B2B2"/>
</svg>
